<svg width="23" height="14" viewBox="0 0 23 14" fill="none" xmlns="http://www.w3.org/2000/svg">
<path d="M7.4019 13.9999C11.2439 13.9999 14.3585 10.8659 14.3585 6.99996C14.3585 3.13399 11.2439 0 7.4019 0C3.55988 0 0.445312 3.13399 0.445312 6.99996C0.445312 10.8659 3.55988 13.9999 7.4019 13.9999Z" fill="#EE0005"/>
<path d="M16.0425 13.9999C19.8845 13.9999 22.9991 10.8659 22.9991 6.99996C22.9991 3.13399 19.8845 0 16.0425 0C12.2005 0 9.08594 3.13399 9.08594 6.99996C9.08594 10.8659 12.2005 13.9999 16.0425 13.9999Z" fill="#F9A000"/>
<path d="M9.08594 7.00096C9.08594 9.22359 10.1156 11.2041 11.721 12.4863C13.3263 11.204 14.356 9.22359 14.356 7.00096C14.356 4.77833 13.3263 2.79785 11.721 1.51562C10.1157 2.79796 9.08594 4.77838 9.08594 7.00096Z" fill="#FF6300"/>
</svg>
